<?xml version="1.0" encoding="UTF-8" standalone="no"?>
<!-- Generator: Adobe Illustrator 17.0.0, SVG Export Plug-In . SVG Version: 6.00 Build 0)  -->

<svg
   version="1.0"
   id="Layer_1"
   x="0px"
   y="0px"
   width="30px"
   height="30px"
   viewBox="0 0 30 30"
   enable-background="new 0 0 30 30"
   xml:space="preserve"
   sodipodi:docname="addicon.svg"
   inkscape:version="1.4 (e7c3feb100, 2024-10-09)"
   xmlns:inkscape="http://www.inkscape.org/namespaces/inkscape"
   xmlns:sodipodi="http://sodipodi.sourceforge.net/DTD/sodipodi-0.dtd"
   xmlns="http://www.w3.org/2000/svg"
   xmlns:svg="http://www.w3.org/2000/svg"><defs
   id="defs1" /><sodipodi:namedview
   id="namedview1"
   pagecolor="#ffffff"
   bordercolor="#000000"
   borderopacity="0.25"
   inkscape:showpageshadow="2"
   inkscape:pageopacity="0.0"
   inkscape:pagecheckerboard="0"
   inkscape:deskcolor="#d1d1d1"
   inkscape:zoom="18.856181"
   inkscape:cx="8.5648309"
   inkscape:cy="16.811464"
   inkscape:window-width="1920"
   inkscape:window-height="1011"
   inkscape:window-x="0"
   inkscape:window-y="0"
   inkscape:window-maximized="1"
   inkscape:current-layer="Layer_1" />

<circle
   style="fill:#daf8e5;fill-opacity:1"
   id="path2"
   cx="15"
   cy="15"
   r="14.796209"
   inkscape:label="circle" /><path
   fill="#EF4546"
   d="m 21.125,13.57175 h -4.6955 v -4.696 c -5e-4,-0.7585 -0.6175,-1.3755 -1.376,-1.3755 h -0.106 c -0.7585,0 -1.3755,0.617 -1.3755,1.3755 v 4.6955 H 8.875999 c -0.7585,5e-4 -1.3755,0.6175 -1.3755,1.376 v 0.106 c 0,0.7585 0.617,1.3755 1.3755,1.3755 H 13.5715 v 4.6955 c 0,0.7585 0.617,1.3755 1.3755,1.3755 h 0.106 c 0.7585,0 1.3755,-0.617 1.3755,-1.3755 v -4.6955 h 4.6955 c 0.7585,0 1.3755,-0.617 1.3755,-1.3755 v -0.106 c 10e-4,-0.7585 -0.616,-1.3755 -1.3745,-1.3755 z"
   id="path1"
   style="fill:#094d26;fill-opacity:1;stroke-width:0.5"
   sodipodi:nodetypes="sccsssccssscsssscsscs"
   inkscape:label="add" /></svg>
