<?xml version="1.0" encoding="UTF-8" standalone="no"?>
<!-- Generator: Adobe Illustrator 24.0.0, SVG Export Plug-In . SVG Version: 6.00 Build 0)  -->

<svg
   version="1.1"
   id="Layer_1"
   x="0px"
   y="0px"
   viewBox="0 0 40 40"
   style="enable-background:new 0 0 40 40;"
   xml:space="preserve"
   sodipodi:docname="back (Copy).svg"
   inkscape:version="1.4 (e7c3feb100, 2024-10-09)"
   xmlns:inkscape="http://www.inkscape.org/namespaces/inkscape"
   xmlns:sodipodi="http://sodipodi.sourceforge.net/DTD/sodipodi-0.dtd"
   xmlns="http://www.w3.org/2000/svg"
   xmlns:svg="http://www.w3.org/2000/svg"><defs
   id="defs1" /><sodipodi:namedview
   id="namedview1"
   pagecolor="#ffffff"
   bordercolor="#000000"
   borderopacity="0.25"
   inkscape:showpageshadow="2"
   inkscape:pageopacity="0.0"
   inkscape:pagecheckerboard="0"
   inkscape:deskcolor="#d1d1d1"
   inkscape:zoom="20.125"
   inkscape:cx="20"
   inkscape:cy="19.975155"
   inkscape:window-width="1920"
   inkscape:window-height="1011"
   inkscape:window-x="0"
   inkscape:window-y="0"
   inkscape:window-maximized="1"
   inkscape:current-layer="Layer_1" />
<path
   d="m 19.997848,2.8927288 c 9.499865,-0.050648 17.240807,7.6081902 17.391454,17.1075222 0.150647,9.499332 -7.60819,17.240807 -17.20752,17.391987 C 10.681917,37.442887 2.9409737,29.784048 2.7903267,20.284716 2.7658027,15.684782 4.5423187,11.275248 7.7252127,8.0582326 11.107571,4.7401528 15.397914,2.9172533 19.997848,2.8927288 Z M 20.167387,34.692277 C 28.267272,34.649092 34.732525,28.114531 34.689341,20.014646 34.646156,11.914761 28.111595,5.4495074 20.01171,5.4926918 11.911825,5.5358758 5.4465717,12.070438 5.4897557,20.170323 c 0.02079,3.899944 1.540497,7.591895 4.354852,10.276928 2.7143573,2.685567 6.4228353,4.265818 10.3227793,4.245026 z M 12.189661,20.134602 c 0.0037,0.699991 0.606922,1.296783 1.306912,1.293051 l 9.999858,-0.05331 -2.983963,3.015952 c -0.497327,0.502658 -0.492529,1.402645 0.01013,1.899973 0.502658,0.497327 1.402645,0.492529 1.899973,-0.01013 l 5.271668,-5.328181 c 0.497327,-0.502659 0.492529,-1.402646 -0.01013,-1.899973 0,0 0,0 0,0 l -5.328181,-5.271668 c -0.502659,-0.497328 -1.402646,-0.492529 -1.899973,0.01013 -0.497327,0.502659 -0.492529,1.402646 0.01013,1.899973 l 3.015951,2.983963 -9.999858,0.05332 c -0.799455,0.104263 -1.296249,0.70692 -1.292517,1.40691 z"
   id="path1"
   style="fill:#ffffff" />
</svg>
