<?xml version="1.0" encoding="utf-8"?>
<!-- Generator: Adobe Illustrator 24.0.0, SVG Export Plug-In . SVG Version: 6.00 Build 0)  -->
<svg version="1.1" id="Layer_1" xmlns="http://www.w3.org/2000/svg" xmlns:xlink="http://www.w3.org/1999/xlink" x="0px" y="0px"
	 viewBox="0 0 14 14" style="enable-background:new 0 0 14 14;" xml:space="preserve">
<style type="text/css">
	.st0{fill:#094D26;}
</style>
<g>
	<g>
		<path class="st0" d="M14,7.2c0,0.7-0.6,1.3-1.3,1.3H1.3C0.6,8.5,0,7.9,0,7.2V6.8c0-0.7,0.6-1.3,1.3-1.3h11.5
			c0.7,0,1.3,0.6,1.3,1.3V7.2z"/>
	</g>
</g>
<g>
	<g>
		<path class="st0" d="M7.2,0c0.7,0,1.3,0.6,1.3,1.3v11.5c0,0.7-0.6,1.3-1.3,1.3H6.8c-0.7,0-1.3-0.6-1.3-1.3V1.3
			C5.5,0.6,6.1,0,6.8,0H7.2z"/>
	</g>
</g>
</svg>
